<!-- icon666.com - MILLIONS vector ICONS FREE --><svg fill="none" viewBox="0 0 128 128" xmlns="http://www.w3.org/2000/svg"><path d="m78.6816 70.9065 7.3184-22.259h-40.4765l6.5878 22.259z" fill="#85b6ff" style="fill: rgb(255, 255, 255);"></path><g clip-rule="evenodd" fill-rule="evenodd"><path d="m33 44c0-1.1046.8954-2 2-2h9.148c.8859 0 1.6663.5829 1.9178 1.4324l.9515 3.2151h38.9827c.6414 0 1.244.3076 1.6201.8272s.4802 1.1881.2798 1.7975l-7.3183 22.2589c-.2699.8207-1.0361 1.3754-1.9 1.3754h-23.8926l.9156 3.0935h22.977c1.1046 0 2 .8954 2 2s-.8954 2-2 2h-24.4708c-.886 0-1.6664-.5829-1.9178-1.4324l-9.6388-32.5676h-7.6542c-1.1046 0-2-.8954-2-2zm20.6052 24.9065h23.6287l6.0032-18.259h-35.0359zm-2.6052 17.0935c0-1.1046.8954-2 2-2h3c1.1046 0 2 .8954 2 2s-.8954 2-2 2h-3c-1.1046 0-2-.8954-2-2zm24 0c0-1.1046.8954-2 2-2h3c1.1046 0 2 .8954 2 2s-.8954 2-2 2h-3c-1.1046 0-2-.8954-2-2z" fill="#85b6ff" style="fill: rgb(255, 255, 255);"></path><path d="m64.5001 18c-18.017 0-33.6121 10.4496-41.0905 25.6599-.4874.9912-1.686 1.3997-2.6772.9123-.9913-.4874-1.3998-1.686-.9124-2.6772 8.1223-16.5198 25.074-27.895 44.6801-27.895 25.8883 0 47.1519 19.8296 49.5699 45.1724l3.468-3.7148c.754-.8074 2.019-.8509 2.827-.0971.807.7538.851 2.0194.097 2.8268l-6.701 7.1775c-.37.397-.887.6262-1.43.6349-.543.0088-1.066-.2036-1.449-.5885l-7.147-7.1775c-.78-.7827-.777-2.049.005-2.8284.783-.7795 2.049-.7768 2.829.0059l3.449 3.4638c-2.538-22.9992-21.9554-40.875-45.5179-40.875zm-47.8311 44.0003c.5838-.0094 1.1425.2369 1.5295.6741l7.1475 8.0747c.7321.8271.6551 2.0911-.172 2.8232-.8271.7322-2.0911.6552-2.8232-.1719l-3.3061-3.735c2.7801 22.7382 22.0777 40.3346 45.4554 40.3346 17.3832 0 32.5113-9.727 40.2719-24.0731.525-.9715 1.739-1.3331 2.71-.8075.972.5255 1.333 1.7391.808 2.7107-8.4281 15.5809-24.8739 26.1699-43.7899 26.1699-25.755 0-46.9322-19.6257-49.5312-44.7811l-3.4298 4.1331c-.7053.85-1.96624.9672-2.81625.2618-.85001-.7053-.96725-1.9662-.26188-2.8162l6.70083-8.0748c.3728-.4493.9234-.7132 1.5072-.7225z" fill="#000" style="fill: rgb(255, 255, 255);"></path></g></svg>