<!-- icon666.com - MILLIONS vector ICONS FREE --><svg id="Layer_1" viewBox="0 0 512 512" xmlns="http://www.w3.org/2000/svg" data-name="Layer 1"><path d="m492.44 411.719a100.268 100.268 0 1 0 -100.266 100.281 100.371 100.371 0 0 0 100.266-100.281zm-40.944-37.3a12.809 12.809 0 0 1 -1.6 18l-69.5 58.218a12.766 12.766 0 0 1 -8.21 2.967 11.706 11.706 0 0 1 -1.373-.121l-.1-.011a12.581 12.581 0 0 1 -8.709-4.9l-29.5-38.634a12.8 12.8 0 1 1 20.345-15.549l21.379 28.011 59.239-49.576a12.8 12.8 0 0 1 18.029 1.6zm-19.938-82.31a130.425 130.425 0 0 0 -39.384-6.275 126.012 126.012 0 0 0 -125.868 125.885c0 25.246 8.509 54.529 24.521 74.632l-2.344.217c-.708.065-1.423.134-2.134.134h-142.135a36.746 36.746 0 0 1 -35.723-27.856l-49.33-197.841-2.817-.423a43.162 43.162 0 0 1 6.379-85.851h10.992l141.392-124.966-.806-2.628a36.526 36.526 0 1 1 69.945-.274l-.78 2.612 141.411 125.256h10.878a43.163 43.163 0 0 1 6.379 85.851l-2.817.423-7.759 31.1zm4.2-56.644a17.564 17.564 0 0 0 0-35.128h-373.035a17.564 17.564 0 0 0 0 35.128zm-49.258-60.734-119.924-105.99-2.514 1.133a35.951 35.951 0 0 1 -14.823 3.126 37.242 37.242 0 0 1 -14.639-3.008l-2.48-1.058-119.753 105.8zm-137.261-149.126a10.9 10.9 0 1 0 10.916 10.9 10.917 10.917 0 0 0 -10.916-10.9z" fill="#2196f3" fill-rule="evenodd" style="fill: rgb(255, 255, 255);"></path></svg>