<!-- icon666.com - MILLIONS vector ICONS FREE --><svg version="1.1" id="Capa_1" xmlns="http://www.w3.org/2000/svg" xmlns:xlink="http://www.w3.org/1999/xlink" x="0px" y="0px" viewBox="0 0 47.079 47.079" style="enable-background:new 0 0 47.079 47.079;" xml:space="preserve"><g><g><path d="M44.496,11.842h-6.152v-5.05c0-3.25-2.593-5.868-5.842-5.868H16.576c-3.249,0-5.895,2.619-5.895,5.868v5.05H4.527 c-1.415,0-2.58,1.148-2.58,2.564v5.575c0,1.417,1.165,2.572,2.58,2.572h0.766l1.276,7.009c0.359-0.045,0.725-0.069,1.097-0.069 c4.96,0,8.997,4.026,8.997,8.985c0,0.53-0.048,1.078-0.137,1.545h21.933c1.238,0,2.302-0.873,2.523-2.092l2.803-15.378h0.711 c1.416,0,2.583-1.156,2.583-2.572v-5.575C47.079,12.991,45.912,11.842,44.496,11.842z M15.413,6.792 c0-0.62,0.543-1.137,1.163-1.137h15.925c0.62,0,1.11,0.517,1.11,1.137v5.05H15.413V6.792z M19.001,30.878 c0,0.985-0.807,1.784-1.793,1.784c-0.985,0-1.795-0.799-1.795-1.784v-9.794c0-0.985,0.81-1.785,1.795-1.785 c0.986,0,1.793,0.799,1.793,1.785V30.878z M26.332,30.878c0,0.985-0.809,1.784-1.792,1.784c-0.985,0-1.795-0.799-1.795-1.784 v-9.794c0-0.985,0.81-1.785,1.795-1.785c0.983,0,1.792,0.799,1.792,1.785V30.878z M33.664,30.878c0,0.985-0.783,1.784-1.768,1.784 c-0.985,0-1.769-0.799-1.769-1.784v-9.794c0-0.985,0.782-1.785,1.769-1.785c0.983,0,1.768,0.799,1.768,1.785V30.878z" fill="#000000" style="fill: rgb(59, 59, 59);"></path><path d="M7.666,30.821C3.432,30.821,0,34.253,0,38.488c0,4.234,3.432,7.667,7.666,7.667s7.666-3.433,7.666-7.667 C15.332,34.253,11.9,30.821,7.666,30.821z M11.983,38.387c0,0.53-0.431,0.961-0.962,0.961H4.209c-0.531,0-0.962-0.431-0.962-0.961 c0-0.531,0.431-0.963,0.962-0.963h6.812C11.552,37.424,11.983,37.855,11.983,38.387z" fill="#000000" style="fill: rgb(59, 59, 59);"></path></g></g></svg>