<svg clip-rule="evenodd" fill-rule="evenodd" stroke-linejoin="round" stroke-miterlimit="2" viewBox="0 0 32 32"
     xmlns="http://www.w3.org/2000/svg">
    <g transform="translate(-144 -96)">
        <path d="m168 120h-1c-.552 0-1 .448-1 1s.448 1 1 1h1v1c0 .552.448 1 1 1s1-.448 1-1v-1h1c.552 0 1-.448 1-1s-.448-1-1-1h-1v-1c0-.552-.448-1-1-1s-1 .448-1 1z"
              fill="#3bacb6" style="fill: rgb(255, 255, 255);"></path>
        <path d="m167.382 107h-14.764l3.276-6.553c.247-.493.047-1.095-.447-1.341-.493-.247-1.095-.047-1.341.447l-3.724 7.447h-1.236c-.578 0-1.127.25-1.507.685s-.553 1.013-.475 1.585c.377 2.762 1.342 9.844 1.791 13.135.203 1.487 1.472 2.595 2.973 2.595h12.55c.017 0 .034 0 .05-.001 1.099 1.228 2.696 2.001 4.472 2.001 3.311 0 6-2.689 6-6 0-2.24-1.23-4.195-3.051-5.225l.887-6.505c.078-.572-.095-1.15-.475-1.585s-.929-.685-1.507-.685h-1.236l-3.724-7.447c-.246-.494-.848-.694-1.341-.447-.494.246-.694.848-.447 1.341zm1.618 10c2.208 0 4 1.792 4 4s-1.792 4-4 4-4-1.792-4-4 1.792-4 4-4zm1.854-8h-21.708l1.791 13.135c.067.496.491.865.991.865h11.414c-.222-.626-.342-1.299-.342-2 0-3.311 2.689-6 6-6 .349 0 .691.03 1.024.087z"
              fill="#00474d" style="fill: rgb(255, 255, 255);"></path>
    </g>
</svg>