<svg width="29" height="29" viewBox="0 0 29 29" fill="none" xmlns="http://www.w3.org/2000/svg">
    <path fill-rule="evenodd" clip-rule="evenodd"
          d="M12 28C18.6274 28 24 22.6274 24 16C24 9.37258 18.6274 4 12 4C5.37258 4 0 9.37258 0 16C0 22.6274 5.37258 28 12 28ZM5.40001 13.5C5.40001 12.3402 6.3402 11.4 7.5 11.4C8.6598 11.4 9.6 12.3402 9.6 13.5C9.6 13.7209 9.7791 13.9 10 13.9C10.2209 13.9 10.4 13.7209 10.4 13.5C10.4 11.8984 9.1016 10.6 7.5 10.6C5.89838 10.6 4.60001 11.8984 4.60001 13.5C4.60001 13.7209 4.77909 13.9 5.00001 13.9C5.22092 13.9 5.40001 13.7209 5.40001 13.5ZM14.4 13.5C14.4 12.3402 15.3402 11.4 16.5 11.4C17.6598 11.4 18.6 12.3402 18.6 13.5C18.6 13.7209 18.7791 13.9 19 13.9C19.2209 13.9 19.4 13.7209 19.4 13.5C19.4 11.8984 18.1016 10.6 16.5 10.6C14.8984 10.6 13.6 11.8984 13.6 13.5C13.6 13.7209 13.7791 13.9 14 13.9C14.2209 13.9 14.4 13.7209 14.4 13.5ZM19.0598 18.6538C19.251 18.7644 19.3164 19.0091 19.2057 19.2003C17.7539 21.71 15.0394 23.4 11.9298 23.4C11.7088 23.4 11.5298 23.2209 11.5298 23C11.5298 22.7791 11.7088 22.6 11.9298 22.6C14.7423 22.6 17.1986 21.0724 18.5133 18.7997C18.6239 18.6085 18.8686 18.5431 19.0598 18.6538Z"
          fill="white"/>
    <rect x="24" y="9" width="9" height="1" rx="0.5" transform="rotate(-90 24 9)" fill="white"/>
    <rect x="20" y="4" width="9" height="1" rx="0.5" fill="white"/>
    <rect x="20" y="4" width="9" height="1" rx="0.5" fill="white"/>
</svg>
