<svg id="Layer_2" enable-background="new 0 0 256 256" viewBox="60 60 400 400" xmlns="http://www.w3.org/2000/svg">
    <g>
        <g>
            <path d="m364.92 400h-149.66c-30.84 0-56.72-23.11-60.19-53.76l-25.9-228.69c-1.72-15.13-14.5-26.55-29.74-26.55h-22.34c-5.52 0-10-4.48-10-10s4.48-10 10-10h22.34c25.42 0 46.74 19.05 49.61 44.3l25.9 228.69c2.33 20.53 19.66 36.01 40.32 36.01h149.66c20.66 0 37.99-15.48 40.32-36.01l19.54-172.55c.66-5.81-1.12-11.41-5.02-15.77-3.89-4.36-9.26-6.76-15.11-6.76h-231.56c-5.52 0-10-4.48-10-10s4.48-10 10-10h231.57c11.45 0 22.39 4.9 30.02 13.44s11.26 19.96 9.97 31.34l-19.54 172.55c-3.47 30.65-29.35 53.76-60.19 53.76z"
                  fill="#000000" style="fill: rgb(255, 255, 255);"></path>
        </g>
        <g>
            <path d="m368.09 441h-155c-5.52 0-10-4.48-10-10s4.48-10 10-10h155c5.52 0 10 4.48 10 10s-4.48 10-10 10z"
                  fill="#000000" style="fill: rgb(255, 255, 255);"></path>
        </g>
        <g>
            <path d="m369.09 232h-153c-5.52 0-10-4.48-10-10s4.48-10 10-10h153c5.52 0 10 4.48 10 10s-4.48 10-10 10z"
                  fill="#000000" style="fill: rgb(255, 255, 255);"></path>
        </g>
        <g>
            <path d="m361.59 290h-138c-5.52 0-10-4.48-10-10s4.48-10 10-10h138c5.52 0 10 4.48 10 10s-4.48 10-10 10z"
                  fill="#000000" style="fill: rgb(255, 255, 255);"></path>
        </g>
    </g>
</svg>