<svg id="Layer_1" viewBox="20 20 460 460" xmlns="http://www.w3.org/2000/svg" data-name="Layer 1">
    <path d="m466.208 451.125-68.142-68.142a85.365 85.365 0 1 0 -15.083 15.083l68.142 68.142a10.665 10.665 0 0 0 15.083-15.083zm-180.8-75.2a64 64 0 1 1 45.255 18.745 63.583 63.583 0 0 1 -45.252-18.748z"
          fill="#000000" style="fill: rgb(255, 255, 255);"></path>
    <path d="m441.667 118.253-192-85.333a10.688 10.688 0 0 0 -8.667 0l-192 85.333a10.669 10.669 0 0 0 -6.333 9.747v234.667a10.665 10.665 0 0 0 6.333 9.744l192 85.333a10.646 10.646 0 0 0 8.667 0l24-10.667a10.665 10.665 0 0 0 -8.667-19.488l-19.667 8.74-181.333-80.595v-211.32l177 78.667a10.673 10.673 0 0 0 8.667 0l177-78.667v122.253a10.667 10.667 0 1 0 21.333 0v-138.667a10.669 10.669 0 0 0 -6.333-9.747zm-196.334-63.914 64.007 28.448-164.34 73.038a10.7 10.7 0 0 0 -1.265.68l-64.135-28.505zm0 147.323-75.466-33.542 165.133-73.391c.2-.087.378-.19.566-.287l75.503 33.558z"
          fill="#000000" style="fill: rgb(255, 255, 255);"></path>
</svg>