<svg version="1.1" id="Capa_1" xmlns="http://www.w3.org/2000/svg" xmlns:xlink="http://www.w3.org/1999/xlink" x="0px"
     y="0px" viewBox="0 0 362.428 362.428" style="enable-background:new 0 0 362.428 362.428;" xml:space="preserve"><path d="M310.052,195.37c-24.766,0.808-43.446-12.629-66.148-18.752c-28.578-7.707-60.158-1.162-83.95,16.094 c0.703-4.436,1.192-8.943,1.434-13.523c2.517-47.764-18.483-91.063-43.759-129.961c0.834,6.719,1.99,13.477,2.4,20.238 c0.992,16.303-6.142,31.16-17.178,42.77c-16.178,16.535-37.527,21.025-56.412,32.715C8.86,168.21-10.142,218.085,5.495,260.306 c10.052,26.066,14.886,32.566,14.886,32.566s24.685,8.209,71.602-11.02c14.798-6.065,26.96-15.76,26.96-15.76 c6.817,6.873,28.604,28.779,58.329,39.633c41.707,15.23,86.281,6.807,120.248-21.818c36.575-30.822,53.807-75.758,64.907-120.797 C347.97,180.476,334.543,194.569,310.052,195.37z M33.003,267.663c27.562-29.73,50.522-59.1,66.182-96.658 C99.813,210.316,68.365,252.255,33.003,267.663z M145.177,250.724c40.545-0.227,77.665-3.549,115.784-17.805 C232.678,260.286,180.62,266.009,145.177,250.724z" fill="#000000" style="fill: rgb(255, 255, 255);"></path></svg>