<svg fill="none" viewBox="2 2 29 29" xmlns="http://www.w3.org/2000/svg">
    <path clip-rule="evenodd"
          d="m16 28c6.6274 0 12-5.3726 12-12 0-6.62742-5.3726-12-12-12-6.62742 0-12 5.37258-12 12 0 6.6274 5.37258 12 12 12zm-6.59999-14.5c0-1.1598.94019-2.1 2.09999-2.1s2.1.9402 2.1 2.1c0 .2209.1791.4.4.4s.4-.1791.4-.4c0-1.6016-1.2984-2.9-2.9-2.9-1.60162 0-2.89999 1.2984-2.89999 2.9 0 .2209.17908.4.4.4.22091 0 .4-.1791.4-.4zm8.99999 0c0-1.1598.9402-2.1 2.1-2.1s2.1.9402 2.1 2.1c0 .2209.1791.4.4.4s.4-.1791.4-.4c0-1.6016-1.2984-2.9-2.9-2.9s-2.9 1.2984-2.9 2.9c0 .2209.1791.4.4.4s.4-.1791.4-.4zm4.6598 5.1538c.1912.1106.2566.3553.1459.5465-1.4518 2.5097-4.1663 4.1997-7.2759 4.1997-.221 0-.4-.1791-.4-.4s.179-.4.4-.4c2.8125 0 5.2688-1.5276 6.5835-3.8003.1106-.1912.3553-.2566.5465-.1459z"
          fill="rgb(0,0,0)" fill-rule="evenodd" style="fill: rgb(255, 255, 255);"></path>
</svg>