<!-- icon666.com - MILLIONS vector ICONS FREE --><svg clip-rule="evenodd" fill-rule="evenodd" image-rendering="optimizeQuality" shape-rendering="geometricPrecision" text-rendering="geometricPrecision" viewBox="0 0 18062 18062" xmlns="http://www.w3.org/2000/svg"><g id="Layer_x0020_1"><path d="m12651 16410h-8015c-1141 0-2048-892-2253-2223l-1006-6304c-763-14-1378-638-1378-1404 0-776 629-1404 1404-1404l6402-1 692-2574c132-497 600-848 1126-848 740 0 1288 744 1098 1462l-520 1931h5683c775 0 1404 629 1404 1404 0 768-616 1420-1381 1434l-278 1739c1397 333 2434 1587 2434 3088 0 2071-1939 3569-3930 3083-408 392-914 617-1482 617zm2238-1667c-146 0-263-117-263-263v-1522h-1521c-147 0-264-117-264-263s117-263 264-263h1521v-1492c0-146 117-263 263-263 147 0 264 117 264 263v1492h1506c146 0 263 117 263 263s-117 263-263 263h-1506v1536c0 132-117 249-264 249zm403-4667c-128-19-273-28-403-28-1462 0-2662 1199-2662 2662s1200 2662 2662 2662c1463 0 2662-1199 2662-2662 0-1312-961-2434-2259-2634zm-171-532 266-1646h-5953l-15 58c-117 439-483 761-907 834-59-29-132-15-205-15-249 0-497-88-702-234-209-158-350-383-412-629h-5307l994 6217c132 892 732 1799 1741 1799h8016c352 0 672-108 945-324-1101-497-1867-1605-1867-2894 0-1846 1562-3299 3406-3166zm-4196 4936c-130 0-304-138-248-322l1258-4681c43-131 175-219 307-175 131 44 219 175 175 307l-1258 4681c-29 117-131 190-234 190zm-2296 87c-146 0-263-117-263-263v-4827c0-146 117-263 263-263s263 117 263 263v4827c0 146-117 263-263 263zm-2267-87c-117 0-220-73-249-190l-1258-4681c-44-132 44-278 176-307 131-44 278 44 307 175l1258 4681c44 132-44 278-176 307-14 15-44 15-58 15zm1331-7036c-112 431 278 892 731 790 249-44 454-219 512-468l1287-4842c73-263-44-556-278-716-117-44-219-74-321-74-293 0-556 191-629 469-435 1615-868 3226-1302 4841zm-26-1858h-6264c-497 0-892 395-892 893 0 497 395 892 892 892h5778c0-26 25-82 35-106zm2393-14-480 1784h6304c497 0 892-395 892-892s-395-892-892-892z" fill="#4d4d4d"></path><path d="m4621 15928h8016c352 0 672-108 945-324-1101-497-1867-1605-1867-2894 0-1846 1562-3299 3406-3166l266-1646h-5953l-15 58c-117 439-483 761-907 834-59-29-132-15-205-15-249 0-497-88-702-234-209-158-350-383-412-629h-5307l994 6217c132 892 732 1799 1741 1799zm6056-1770 1258-4681c43-131 175-219 307-175 131 44 219 175 175 307l-1258 4681c-29 117-131 190-234 190-130 0-304-138-248-322zm-1785-4681v4827c0 146-117 263-263 263s-263-117-263-263v-4827c0-146 117-263 263-263s263 117 263 263zm-3554 0 1258 4681c44 132-44 278-176 307-14 15-44 15-58 15-117 0-220-73-249-190l-1258-4681c-44-132 44-278 176-307 131-44 278 44 307 175z" fill="#d9f2f2" style="fill: rgb(255, 255, 255);"></path><path d="m9580 7356h6304c497 0 892-395 892-892s-395-892-892-892h-5824z" fill="#99a4ac" style="fill: rgb(255, 255, 255);"></path><path d="m7216 7265 451-1679h-6264c-497 0-892 395-892 893 0 497 395 892 892 892h5778c0-26 25-82 35-106z" fill="#99a4ac" style="fill: rgb(255, 255, 255);"></path><path d="m8995 2603-1302 4841c-112 431 278 892 731 790 249-44 454-219 512-468l1287-4842c73-263-44-556-278-716-117-44-219-74-321-74-293 0-556 191-629 469z" fill="#ff700d" style="fill: rgb(255, 255, 255);"></path><path d="m14889 10048c-1462 0-2662 1199-2662 2662s1200 2662 2662 2662c1463 0 2662-1199 2662-2662 0-1312-961-2434-2259-2634-128-19-273-28-403-28zm264 892v1492h1506c146 0 263 117 263 263s-117 263-263 263h-1506v1536c0 132-117 249-264 249-146 0-263-117-263-263v-1522h-1521c-147 0-264-117-264-263s117-263 264-263h1521v-1492c0-146 117-263 263-263 147 0 264 117 264 263z" fill="#7ed63f" style="fill: rgb(149, 195, 127);"></path></g></svg>