<!-- icon666.com - MILLIONS vector ICONS FREE --><svg viewBox="0 0 32 32" xmlns="http://www.w3.org/2000/svg"><g id="Layer_2" data-name="Layer 2"><path d="m16 1.5a13.067 13.067 0 0 0 -7.719 23.61l-1.975 4.7a.5.5 0 0 0 .679.642l6.347-3.089a13.067 13.067 0 1 0 2.668-25.863zm0 25.133a12.172 12.172 0 0 1 -2.624-.286.487.487 0 0 0 -.327.039l-5.306 2.583 1.615-3.841a.5.5 0 0 0 -.178-.606 12.067 12.067 0 1 1 6.82 2.111z" fill="#000000" style="fill: rgb(77, 77, 77);"></path><path d="m18 20.5h-1.5v-8.5a.5.5 0 0 0 -.5-.5h-2a.5.5 0 0 0 0 1h1.5v8.5a.5.5 0 0 0 .5.5h2a.5.5 0 0 0 0-1z" fill="#000000" style="fill: rgb(77, 77, 77);"></path><path d="m16 10.5a1.5 1.5 0 1 0 -1.5-1.5 1.5 1.5 0 0 0 1.5 1.5zm0-2a.5.5 0 1 1 -.5.5.5.5 0 0 1 .5-.5z" fill="#000000" style="fill: rgb(77, 77, 77);"></path></g></svg>