<!-- icon666.com - MILLIONS vector ICONS FREE --><svg id="Layer_1" enable-background="new 0 0 512 512" viewBox="0 0 512 512" xmlns="http://www.w3.org/2000/svg" xmlns:xlink="http://www.w3.org/1999/xlink"><linearGradient id="SVGID_1_" gradientTransform="matrix(1 0 0 -1 0 512)" gradientUnits="userSpaceOnUse" x1="85.249" x2="464.759" y1="43.421" y2="422.932"><stop offset="0" stop-color="#363ab3"></stop><stop offset="1" stop-color="#f7b3ee"></stop></linearGradient><g id="_x32_9_Teapot"><g><path d="m509.971 379.346c-3.412-24.589-12.39-48.784-25.544-71.176v-137.824c0-82.147-66.834-148.982-148.987-148.982h-108.13c-12.086 0-21.987 9.724-21.987 21.984 0 12.125 9.862 21.989 21.987 21.989h108.13c57.904 0 105.013 47.104 105.013 105.008v83.887c-17.458-15.884-37.401-29.273-59.052-39.209-1.083-36.256-27.864-66.095-62.747-71.938 2.256-3.537 3.604-7.674 3.604-12.063 0-12.424-10.084-22.534-22.478-22.534-12.427 0-22.534 10.111-22.534 22.534 0 4.39 1.351 8.528 3.613 12.065-34.232 5.75-60.73 34.688-62.737 70.094-39.924 16.658-72.688 44.241-95.403 78.569l-48.407-48.708c-3.055-3.13-7.312-4.93-11.683-4.93h-46.218c-12.468 0-20.366 13.408-14.357 24.361l85.641 154.663c.363 14.169 1.588 33.474 3.636 49.366 1.774 13.759 13.511 24.132 27.301 24.132h362.621c13.789 0 25.24-9.977 27.233-23.715 4.048-27.65 4.674-64.477 1.485-87.573zm-174.531-324.946h-108.13c-6.091 0-11.048-4.957-11.048-11.051 0-6.254 5.011-11.046 11.048-11.046h108.13c76.12 0 138.049 61.926 138.049 138.043v120.86c-6.632-9.264-14.069-18.055-22.096-26.358v-94.502c-.001-63.934-52.017-115.946-115.953-115.946zm-35.661 65.029c6.364 0 11.54 5.202 11.54 11.596 0 4.965-3.21 9.365-7.851 10.944h-7.393c-4.665-1.58-7.893-5.979-7.893-10.944.001-6.394 5.204-11.596 11.597-11.596zm-6.474 33.478h12.894c33.655 0 61.36 25.958 64.148 58.903l-141.248-.123c2.941-32.881 30.669-58.78 64.206-58.78zm-276.894 96.147h46.217c1.461 0 2.826.577 3.885 1.666l50.246 50.558c-16.502 28.091-26.522 60.112-28.676 93.98l-76.451-138.064c-1.994-3.637.629-8.14 4.779-8.14zm481.252 216.291c-1.204 8.317-8.105 14.352-16.408 14.352h-362.622c-8.308 0-15.38-6.271-16.453-14.592-2.385-18.513-3.672-42.708-3.672-56.072 0-38.429 10.799-74.747 29.932-105.791.128-.224.315-.418.409-.654 21.883-35.197 54.576-63.485 94.955-79.968l148.255.13c65.984 28.275 117.84 91.526 127.075 158.097 3.066 22.199 2.449 57.728-1.471 84.498zm-485.146-244.199c-8.295-8.322-6.845-21.707-1.728-31.283 7.974-14.927 21.685-22.278 15.642-48.749-2.153-9.444-6.455-18.614-10.616-27.48-1.284-2.735-.107-5.993 2.628-7.275 2.724-1.282 5.993-.107 7.275 2.628 4.407 9.39 8.962 19.106 11.38 29.692 7.237 31.739-9.652 43.228-16.662 56.345-3.111 5.822-4.495 14.064-.173 18.401 2.134 2.136 2.129 5.603-.01 7.735-2.153 2.136-5.613 2.12-7.736-.014zm34.498 0c-8.292-8.317-6.845-21.701-1.731-31.278 7.961-14.907 21.685-22.248 15.647-48.76-2.153-9.437-6.455-18.609-10.616-27.475-1.284-2.735-.107-5.993 2.628-7.275 2.729-1.282 5.991-.107 7.275 2.628 4.407 9.39 8.962 19.106 11.38 29.692 7.232 31.758-9.655 43.228-16.665 56.345-3.111 5.822-4.492 14.069-.173 18.401 2.134 2.136 2.129 5.603-.01 7.735-2.151 2.137-5.612 2.121-7.735-.013z" fill="url(#SVGID_1_)" style="fill: rgb(77, 77, 77);"></path></g></g></svg>