<svg id="Layer_1" viewBox="0 0 64 64" xmlns="http://www.w3.org/2000/svg" data-name="Layer 1">
    <path d="m62.56 1.17a1 1 0 0 0 -.56-.17h-46a1 1 0 0 0 -1 1v20h2v-19h39.81l-20.18 8.07a1 1 0 0 0 -.63.93v46h-19v-16h-2v17a1 1 0 0 0 1 1h20v2a1 1 0 0 0 .44.83 1 1 0 0 0 .56.17.94.94 0 0 0 .37-.07l25-10a1 1 0 0 0 .63-.93v-50a1 1 0 0 0 -.44-.83zm-1.56 50.15-23 9.2v-47.84l23-9.2z"
          fill="#000000" style="fill: rgb(255, 255, 255);"></path>
    <path d="m43 35a3 3 0 1 0 -3-3 3 3 0 0 0 3 3zm0-4a1 1 0 1 1 -1 1 1 1 0 0 1 1-1z" fill="#000000"
          style="fill: rgb(255, 255, 255);"></path>
    <path d="m2 37h18v2a1 1 0 0 0 1 1 1 1 0 0 0 .5-.14l12-7a1 1 0 0 0 0-1.72l-12-7a1 1 0 0 0 -1.5.86v2h-18a1 1 0 0 0 -1 1v8a1 1 0 0 0 1 1zm1-8h18a1 1 0 0 0 1-1v-1.26l9 5.26-9 5.26v-1.26a1 1 0 0 0 -1-1h-18z"
          fill="#000000" style="fill: rgb(255, 255, 255);"></path>
</svg>