<!-- icon666.com - MILLIONS vector ICONS FREE --><svg id="Capa_1" enable-background="new 0 0 512 512" viewBox="0 0 512 512" xmlns="http://www.w3.org/2000/svg"><g><path d="m497 241c-8.284 0-15 6.716-15 15 0 124.617-101.383 226-226 226s-226-101.383-226-226 101.383-226 226-226c50.178 0 97.851 16.256 137.031 46.253l-26.033 4.6c-8.158 1.441-13.603 9.223-12.161 17.381 1.441 8.158 9.223 13.603 17.381 12.161l56.804-10.037c7.166-1.266 12.39-7.494 12.39-14.771v-56.804c0-8.284-6.716-15-15-15s-15 6.716-15 15v23.756c-44.417-34.072-98.492-52.539-155.412-52.539-68.38 0-132.667 26.629-181.02 74.98-48.351 48.353-74.98 112.64-74.98 181.02s26.629 132.667 74.98 181.02c48.353 48.351 112.64 74.98 181.02 74.98s132.667-26.629 181.02-74.98c48.351-48.353 74.98-112.64 74.98-181.02 0-8.284-6.716-15-15-15z" fill="#000000" style="fill: rgb(255, 255, 255);"></path><path d="m336 196v-25c0-44.112-35.888-80-80-80s-80 35.888-80 80v25h30v-25c0-27.57 22.43-50 50-50s50 22.43 50 50v25z" fill="#000000" style="fill: rgb(255, 255, 255);"></path><path d="m151 241v125c0 8.284 6.716 15 15 15h180c8.284 0 15-6.716 15-15v-125c0-8.284-6.716-15-15-15h-180c-8.284 0-15 6.716-15 15zm95 40h20c8.284 0 15 6.716 15 15s-6.716 15-15 15h-20c-8.284 0-15-6.716-15-15s6.716-15 15-15z" fill="#000000" style="fill: rgb(255, 255, 255);"></path></g></svg>